<mxfile host="www.draw.io" modified="2020-02-13T01:39:35.924Z" agent="Mozilla/5.0 (Macintosh; Intel Mac OS X 10.14; rv:71.0) Gecko/20100101 Firefox/71.0" etag="8hNEtIgp033fnkR-eGYv" version="12.6.8" type="github">
  <diagram id="3228e29e-7158-1315-38df-8450db1d8a1d" name="Page-1">
    <mxGraphModel dx="1112" dy="849" grid="1" gridSize="10" guides="1" tooltips="1" connect="1" arrows="1" fold="1" page="1" pageScale="1" pageWidth="1169" pageHeight="827" background="#ffffff" math="0" shadow="0">
      <root>
        <mxCell id="0"/>
        <mxCell id="1" parent="0"/>
        <mxCell id="21532" value="" style="ellipse;fillColor=#12AAB5;opacity=60;strokeColor=none;html=1;fontColor=#FFFFFF;" parent="1" vertex="1">
          <mxGeometry x="179.5" y="18.5" width="500" height="500" as="geometry"/>
        </mxCell>
        <mxCell id="21533" value="" style="ellipse;fillColor=#e85642;opacity=60;strokeColor=none;html=1;fontColor=#FFFFFF;" parent="1" vertex="1">
          <mxGeometry x="420" y="18.5" width="500" height="500" as="geometry"/>
        </mxCell>
        <mxCell id="21534" value="&lt;font style=&quot;font-size: 34px&quot;&gt;Caving&lt;/font&gt;" style="text;fontSize=24;align=center;verticalAlign=middle;html=1;fontColor=#FFFFFF;" parent="1" vertex="1">
          <mxGeometry x="150" y="233.5" width="190" height="70" as="geometry"/>
        </mxCell>
        <mxCell id="21535" value="&lt;font style=&quot;font-size: 33px&quot;&gt;Mountaineering&lt;/font&gt;" style="text;fontSize=24;align=center;verticalAlign=middle;html=1;fontColor=#FFFFFF;" parent="1" vertex="1">
          <mxGeometry x="706" y="233" width="190" height="70" as="geometry"/>
        </mxCell>
        <mxCell id="21537" value="Peeing in Bottles" style="text;align=center;html=1;fontColor=#FFFFFF;fontSize=16;" parent="1" vertex="1">
          <mxGeometry x="530" y="90" width="40" height="40" as="geometry"/>
        </mxCell>
        <mxCell id="21538" value="Starts at the top!" style="text;align=center;html=1;fontColor=#FFFFFF;fontSize=16;" parent="1" vertex="1">
          <mxGeometry x="409.5" y="40" width="40" height="40" as="geometry"/>
        </mxCell>
        <mxCell id="21539" value="Starts at the bottom!" style="text;align=center;html=1;fontColor=#FFFFFF;fontSize=16;" parent="1" vertex="1">
          <mxGeometry x="670" y="470" width="40" height="40" as="geometry"/>
        </mxCell>
        <mxCell id="21540" value="Sticky Clompers" style="text;align=center;html=1;fontColor=#FFFFFF;fontSize=16;" parent="1" vertex="1">
          <mxGeometry x="527.5" y="210" width="40" height="40" as="geometry"/>
        </mxCell>
        <mxCell id="k5Q_1SbnG-4EYqc-haiw-21540" value="&lt;div&gt;Rope management&lt;/div&gt;&lt;div&gt;bickering&lt;br&gt;&lt;/div&gt;" style="text;align=center;html=1;fontColor=#FFFFFF;fontSize=16;" parent="1" vertex="1">
          <mxGeometry x="530" y="120" width="40" height="40" as="geometry"/>
        </mxCell>
        <mxCell id="k5Q_1SbnG-4EYqc-haiw-21544" value="Miserable vacations" style="text;align=center;html=1;fontColor=#FFFFFF;fontSize=16;" parent="1" vertex="1">
          <mxGeometry x="525.5" y="170" width="44" height="40" as="geometry"/>
        </mxCell>
        <mxCell id="k5Q_1SbnG-4EYqc-haiw-21545" value="Skin Cancer" style="text;align=center;html=1;fontColor=#FFFFFF;fontSize=16;" parent="1" vertex="1">
          <mxGeometry x="679.5" y="60" width="40" height="40" as="geometry"/>
        </mxCell>
        <mxCell id="k5Q_1SbnG-4EYqc-haiw-21546" value="Strange diseases" style="text;align=center;html=1;fontColor=#FFFFFF;fontSize=16;" parent="1" vertex="1">
          <mxGeometry x="350" y="90" width="40" height="40" as="geometry"/>
        </mxCell>
        <mxCell id="k5Q_1SbnG-4EYqc-haiw-21547" value="Tight spaces" style="text;align=center;html=1;fontColor=#FFFFFF;fontSize=16;" parent="1" vertex="1">
          <mxGeometry x="270" y="120" width="40" height="40" as="geometry"/>
        </mxCell>
        <mxCell id="k5Q_1SbnG-4EYqc-haiw-21548" value="Unpredictable weather" style="text;align=center;html=1;fontColor=#FFFFFF;fontSize=16;" parent="1" vertex="1">
          <mxGeometry x="750" y="110" width="40" height="40" as="geometry"/>
        </mxCell>
        <mxCell id="j7XDGhFaV4TOFL3fgutA-21543" value="Flooding" style="text;align=center;html=1;fontColor=#FFFFFF;fontSize=16;" vertex="1" parent="1">
          <mxGeometry x="380" y="130" width="40" height="40" as="geometry"/>
        </mxCell>
        <mxCell id="j7XDGhFaV4TOFL3fgutA-21544" value="&lt;div&gt;Trouble relating weekend&lt;/div&gt;&lt;div&gt;to coworkers&lt;br&gt;&lt;/div&gt;" style="text;align=center;html=1;fontColor=#FFFFFF;fontSize=16;" vertex="1" parent="1">
          <mxGeometry x="530" y="290" width="40" height="40" as="geometry"/>
        </mxCell>
        <mxCell id="j7XDGhFaV4TOFL3fgutA-21548" value="&lt;div&gt;Fondness for onesies and&lt;/div&gt;&lt;div&gt;unstylish colors&lt;br&gt;&lt;/div&gt;" style="text;align=center;html=1;fontColor=#FFFFFF;fontSize=16;" vertex="1" parent="1">
          <mxGeometry x="280" y="160" width="40" height="40" as="geometry"/>
        </mxCell>
        <mxCell id="j7XDGhFaV4TOFL3fgutA-21550" value="&lt;div&gt;Gear somewhat available &lt;br&gt;&lt;/div&gt;&lt;div&gt;at REI&lt;/div&gt;" style="text;align=center;html=1;fontColor=#FFFFFF;fontSize=16;" vertex="1" parent="1">
          <mxGeometry x="790" y="300" width="40" height="40" as="geometry"/>
        </mxCell>
        <mxCell id="j7XDGhFaV4TOFL3fgutA-21551" value="Shunned by REI" style="text;align=center;html=1;fontColor=#FFFFFF;fontSize=16;" vertex="1" parent="1">
          <mxGeometry x="260" y="290" width="40" height="40" as="geometry"/>
        </mxCell>
        <mxCell id="j7XDGhFaV4TOFL3fgutA-21553" value="&lt;div&gt;Newpaper typecasting: &lt;br&gt;&lt;/div&gt;&lt;div&gt;&quot;Splunker&quot;&lt;/div&gt;" style="text;align=center;html=1;fontColor=#FFFFFF;fontSize=16;" vertex="1" parent="1">
          <mxGeometry x="300" y="320" width="40" height="40" as="geometry"/>
        </mxCell>
        <mxCell id="j7XDGhFaV4TOFL3fgutA-21554" value="&lt;div&gt;Newpaper typecasting: &lt;br&gt;&lt;/div&gt;&lt;div&gt;&quot;Hiker&quot;&lt;/div&gt;" style="text;align=center;html=1;fontColor=#FFFFFF;fontSize=16;" vertex="1" parent="1">
          <mxGeometry x="750" y="350" width="40" height="40" as="geometry"/>
        </mxCell>
        <mxCell id="j7XDGhFaV4TOFL3fgutA-21555" value="Mud" style="text;align=center;html=1;fontColor=#FFFFFF;fontSize=16;" vertex="1" parent="1">
          <mxGeometry x="420" y="410" width="40" height="40" as="geometry"/>
        </mxCell>
        <mxCell id="j7XDGhFaV4TOFL3fgutA-21556" value="Snow" style="text;align=center;html=1;fontColor=#FFFFFF;fontSize=16;" vertex="1" parent="1">
          <mxGeometry x="650" y="410" width="40" height="40" as="geometry"/>
        </mxCell>
        <mxCell id="j7XDGhFaV4TOFL3fgutA-21557" value="Rating systems" style="text;align=center;html=1;fontColor=#FFFFFF;fontSize=16;" vertex="1" parent="1">
          <mxGeometry x="781" y="170" width="40" height="40" as="geometry"/>
        </mxCell>
        <mxCell id="j7XDGhFaV4TOFL3fgutA-21558" value="&lt;div&gt;Your friends all own&lt;/div&gt;&lt;div&gt;Subarus&lt;/div&gt;" style="text;align=center;html=1;fontColor=#FFFFFF;fontSize=16;" vertex="1" parent="1">
          <mxGeometry x="527.5" y="350" width="40" height="40" as="geometry"/>
        </mxCell>
        <mxCell id="j7XDGhFaV4TOFL3fgutA-21559" value="Hazardous Atmospheres" style="text;align=center;html=1;fontColor=#FFFFFF;fontSize=16;" vertex="1" parent="1">
          <mxGeometry x="390" y="470" width="40" height="40" as="geometry"/>
        </mxCell>
        <mxCell id="j7XDGhFaV4TOFL3fgutA-21560" value="Haul Systems" style="text;align=center;html=1;fontColor=#FFFFFF;fontSize=16;" vertex="1" parent="1">
          <mxGeometry x="527.5" y="410" width="40" height="40" as="geometry"/>
        </mxCell>
        <mxCell id="j7XDGhFaV4TOFL3fgutA-21561" value="&lt;div&gt;Gear exceeds vehicle value&lt;br&gt;&lt;/div&gt;" style="text;align=center;html=1;fontColor=#FFFFFF;fontSize=16;" vertex="1" parent="1">
          <mxGeometry x="786" y="210" width="44" height="40" as="geometry"/>
        </mxCell>
        <mxCell id="j7XDGhFaV4TOFL3fgutA-21562" value="Halloween marketing tie-ins" style="text;align=center;html=1;fontColor=#FFFFFF;fontSize=16;" vertex="1" parent="1">
          <mxGeometry x="320" y="380" width="40" height="40" as="geometry"/>
        </mxCell>
        <mxCell id="j7XDGhFaV4TOFL3fgutA-21563" value="Vehicle has little value" style="text;align=center;html=1;fontColor=#FFFFFF;fontSize=16;" vertex="1" parent="1">
          <mxGeometry x="280" y="210" width="40" height="40" as="geometry"/>
        </mxCell>
        <mxCell id="j7XDGhFaV4TOFL3fgutA-21566" value="Cute goats" style="text;align=center;html=1;fontColor=#FFFFFF;fontSize=16;" vertex="1" parent="1">
          <mxGeometry x="746" y="420" width="40" height="40" as="geometry"/>
        </mxCell>
        <mxCell id="j7XDGhFaV4TOFL3fgutA-21567" value="Cute bats" style="text;align=center;html=1;fontColor=#FFFFFF;fontSize=16;" vertex="1" parent="1">
          <mxGeometry x="290" y="420" width="40" height="40" as="geometry"/>
        </mxCell>
        <mxCell id="j7XDGhFaV4TOFL3fgutA-21568" value="Beer" style="text;align=center;html=1;fontColor=#FFFFFF;fontSize=16;" vertex="1" parent="1">
          <mxGeometry x="527.5" y="248" width="40" height="40" as="geometry"/>
        </mxCell>
      </root>
    </mxGraphModel>
  </diagram>
</mxfile>
